  0
SECTION
  2
HEADER
  9
$ACADVER
  1
AC1012
  9
$DWGCODEPAGE
  3
undefined
  9
$INSBASE
 10
0.0
 20
0.0
 30
0.0
  9
$EXTMIN
 10
1.000000000000000E+20
 20
1.000000000000000E+20
 30
1.000000000000000E+20
  9
$EXTMAX
 10
-1.000000000000000E+20
 20
-1.000000000000000E+20
 30
-1.000000000000000E+20
  9
$LIMMIN
 10
0.0
 20
0.0
  9
$LIMMAX
 10
12.0
 20
9.0
  9
$ORTHOMODE
 70
     0
  9
$REGENMODE
 70
     1
  9
$FILLMODE
 70
     1
  9
$QTEXTMODE
 70
     0
  9
$MIRRTEXT
 70
     1
  9
$DRAGMODE
 70
     2
  9
$LTSCALE
 40
1.0
  9
$OSMODE
 70
    37
  9
$ATTMODE
 70
     1
  9
$TEXTSIZE
 40
0.2
  9
$TRACEWID
 40
0.05
  9
$TEXTSTYLE
  7
STANDARD
  9
$CLAYER
  8
0
  9
$CELTYPE
  6
BYLAYER
  9
$CECOLOR
 62
   256
  9
$CELTSCALE
 40
1.0
  9
$DELOBJ
 70
     1
  9
$DISPSILH
 70
     0
  9
$DIMSCALE
 40
1.0
  9
$DIMASZ
 40
0.18
  9
$DIMEXO
 40
0.0625
  9
$DIMDLI
 40
0.38
  9
$DIMRND
 40
0.0
  9
$DIMDLE
 40
0.0
  9
$DIMEXE
 40
0.18
  9
$DIMTP
 40
0.0
  9
$DIMTM
 40
0.0
  9
$DIMTXT
 40
0.18
  9
$DIMCEN
 40
0.09
  9
$DIMTSZ
 40
0.0
  9
$DIMTOL
 70
     0
  9
$DIMLIM
 70
     0
  9
$DIMTIH
 70
     1
  9
$DIMTOH
 70
     1
  9
$DIMSE1
 70
     0
  9
$DIMSE2
 70
     0
  9
$DIMTAD
 70
     0
  9
$DIMZIN
 70
     0
  9
$DIMBLK
  1

  9
$DIMASO
 70
     1
  9
$DIMSHO
 70
     1
  9
$DIMPOST
  1

  9
$DIMAPOST
  1

  9
$DIMALT
 70
     0
  9
$DIMALTD
 70
     2
  9
$DIMALTF
 40
25.4
  9
$DIMLFAC
 40
1.0
  9
$DIMTOFL
 70
     0
  9
$DIMTVP
 40
0.0
  9
$DIMTIX
 70
     0
  9
$DIMSOXD
 70
     0
  9
$DIMSAH
 70
     0
  9
$DIMBLK1
  1

  9
$DIMBLK2
  1

  9
$DIMSTYLE
  2
STANDARD
  9
$DIMCLRD
 70
     0
  9
$DIMCLRE
 70
     0
  9
$DIMCLRT
 70
     0
  9
$DIMTFAC
 40
1.0
  9
$DIMGAP
 40
0.09
  9
$DIMJUST
 70
     0
  9
$DIMSD1
 70
     0
  9
$DIMSD2
 70
     0
  9
$DIMTOLJ
 70
     1
  9
$DIMTZIN
 70
     0
  9
$DIMALTZ
 70
     0
  9
$DIMALTTZ
 70
     0
  9
$DIMFIT
 70
     3
  9
$DIMUPT
 70
     0
  9
$DIMUNIT
 70
     2
  9
$DIMDEC
 70
     4
  9
$DIMTDEC
 70
     4
  9
$DIMALTU
 70
     2
  9
$DIMALTTD
 70
     2
  9
$DIMTXSTY
  7
STANDARD
  9
$DIMAUNIT
 70
     0
  9
$LUNITS
 70
     2
  9
$LUPREC
 70
     4
  9
$SKETCHINC
 40
0.1
  9
$FILLETRAD
 40
0.5
  9
$AUNITS
 70
     0
  9
$AUPREC
 70
     0
  9
$MENU
  1
.
  9
$ELEVATION
 40
0.0
  9
$PELEVATION
 40
0.0
  9
$THICKNESS
 40
0.0
  9
$LIMCHECK
 70
     0
  9
$CHAMFERA
 40
0.5
  9
$CHAMFERB
 40
0.5
  9
$CHAMFERC
 40
1.0
  9
$CHAMFERD
 40
0.0
  9
$SKPOLY
 70
     0
  9
$TDCREATE
 40
2457140.572800926
  9
$TDUPDATE
 40
2457140.572800926
  9
$TDINDWG
 40
0.0000000116
  9
$TDUSRTIMER
 40
0.0000000116
  9
$USRTIMER
 70
     1
  9
$ANGBASE
 50
0.0
  9
$ANGDIR
 70
     0
  9
$PDMODE
 70
     0
  9
$PDSIZE
 40
0.0
  9
$PLINEWID
 40
0.0
  9
$COORDS
 70
     1
  9
$SPLFRAME
 70
     0
  9
$SPLINETYPE
 70
     6
  9
$SPLINESEGS
 70
     8
  9
$ATTDIA
 70
     0
  9
$ATTREQ
 70
     1
  9
$HANDLING
 70
     1
  9
$HANDSEED
  5
4D
  9
$SURFTAB1
 70
     6
  9
$SURFTAB2
 70
     6
  9
$SURFTYPE
 70
     6
  9
$SURFU
 70
     6
  9
$SURFV
 70
     6
  9
$UCSNAME
  2

  9
$UCSORG
 10
0.0
 20
0.0
 30
0.0
  9
$UCSXDIR
 10
1.0
 20
0.0
 30
0.0
  9
$UCSYDIR
 10
0.0
 20
1.0
 30
0.0
  9
$PUCSNAME
  2

  9
$PUCSORG
 10
0.0
 20
0.0
 30
0.0
  9
$PUCSXDIR
 10
1.0
 20
0.0
 30
0.0
  9
$PUCSYDIR
 10
0.0
 20
1.0
 30
0.0
  9
$USERI1
 70
     0
  9
$USERI2
 70
     0
  9
$USERI3
 70
     0
  9
$USERI4
 70
     0
  9
$USERI5
 70
     0
  9
$USERR1
 40
0.0
  9
$USERR2
 40
0.0
  9
$USERR3
 40
0.0
  9
$USERR4
 40
0.0
  9
$USERR5
 40
0.0
  9
$WORLDVIEW
 70
     1
  9
$SHADEDGE
 70
     3
  9
$SHADEDIF
 70
    70
  9
$TILEMODE
 70
     1
  9
$MAXACTVP
 70
    64
  9
$PINSBASE
 10
0.0
 20
0.0
 30
0.0
  9
$PLIMCHECK
 70
     0
  9
$PEXTMIN
 10
1.000000000000000E+20
 20
1.000000000000000E+20
 30
1.000000000000000E+20
  9
$PEXTMAX
 10
-1.000000000000000E+20
 20
-1.000000000000000E+20
 30
-1.000000000000000E+20
  9
$PLIMMIN
 10
0.0
 20
0.0
  9
$PLIMMAX
 10
12.0
 20
9.0
  9
$UNITMODE
 70
     0
  9
$VISRETAIN
 70
     1
  9
$PLINEGEN
 70
     0
  9
$PSLTSCALE
 70
     1
  9
$TREEDEPTH
 70
  3020
  9
$PICKSTYLE
 70
     1
  9
$CMLSTYLE
  2
STANDARD
  9
$CMLJUST
 70
     0
  9
$CMLSCALE
 40
1.0
  9
$SAVEIMAGES
 70
     1
  0
ENDSEC
  0
SECTION
  2
CLASSES
  0
CLASS
  1
ACDBDICTIONARYWDFLT
  2
AcDbDictionaryWithDefault
  3
ObjectDBX Classes
 90
    32768
280
     0
281
     0
  0
CLASS
  1
VISUALSTYLE
  2
AcDbVisualStyle
  3
ObjectDBX Classes
 90
     4095
280
     0
281
     0
  0
CLASS
  1
MATERIAL
  2
AcDbMaterial
  3
ObjectDBX Classes
 90
     1153
280
     0
281
     0
  0
CLASS
  1
SUN
  2
AcDbSun
  3
SCENEOE
 90
     1024
280
     0
281
     0
  0
CLASS
  1
DICTIONARYVAR
  2
AcDbDictionaryVar
  3
ObjectDBX Classes
 90
        0
280
     0
281
     0
  0
CLASS
  1
XRECORD
  2
AcDbXrecord
  3
AutoCAD 2000
 90
    32768
280
     0
281
     0
  0
CLASS
  1
LWPOLYLINE
  2
AcDbPolyline
  3
AutoCAD 2000
 90
    32768
280
     0
281
     1
  0
CLASS
  1
HATCH
  2
AcDbHatch
  3
AutoCAD 2000
 90
    32768
280
     0
281
     1
  0
CLASS
  1
ACDBPLACEHOLDER
  2
AcDbPlaceHolder
  3
ObjectDBX Classes
 90
        0
280
     0
281
     0
  0
CLASS
  1
LAYOUT
  2
AcDbLayout
  3
ObjectDBX Classes
 90
        0
280
     0
281
     0
  0
ENDSEC
  0
SECTION
  2
TABLES
  0
TABLE
  2
VPORT
  5
8
330
0
100
AcDbSymbolTable
 70
     1
  0
VPORT
  5
29
330
8
100
AcDbSymbolTableRecord
100
AcDbViewportTableRecord
  2
*ACTIVE
 70
     0
 10
0.0
 20
0.0
 11
1.0
 21
1.0
 12
0.0
 22
0.0
 13
0.0
 23
0.0
 14
0.5
 24
0.5
 15
0.5
 25
0.5
 16
0.0
 26
0.0
 36
1.0
 17
148.5000416295416
 27
-105.0007777515277
 37
0.0
 40
210.0015555030554
 41
1.414275634995294
 42
50.0
 43
0.0
 44
0.0
 50
0.0
 51
0.0
 71
     0
 72
   100
 73
     1
 74
     3
 75
     0
 76
     0
 77
     0
 78
     0
  0
ENDTAB
  0
TABLE
  2
LTYPE
  5
5
330
0
100
AcDbSymbolTable
 70
     1
  0
LTYPE
  5
14
330
5
100
AcDbSymbolTableRecord
100
AcDbLinetypeTableRecord
  2
BYBLOCK
 70
     0
  3

 72
    65
 73
     0
 40
0.0
  0
LTYPE
  5
15
330
5
100
AcDbSymbolTableRecord
100
AcDbLinetypeTableRecord
  2
BYLAYER
 70
     0
  3

 72
    65
 73
     0
 40
0.0
  0
LTYPE
  5
16
330
5
100
AcDbSymbolTableRecord
100
AcDbLinetypeTableRecord
  2
CONTINUOUS
 70
     0
  3
Solid line
 72
    65
 73
     0
 40
0.0
  0
ENDTAB
  0
TABLE
  2
LAYER
  5
2
330
0
100
AcDbSymbolTable
 70
     2
  0
LAYER
  5
10
330
2
100
AcDbSymbolTableRecord
100
AcDbLayerTableRecord
  2
0
 70
     0
 62
     7
  6
CONTINUOUS
  0
LAYER
  5
40
330
2
100
AcDbSymbolTableRecord
100
AcDbLayerTableRecord
  2
LIVELLO_1
 70
     0
 62
     7
  6
CONTINUOUS
  0
ENDTAB
  0
TABLE
  2
STYLE
  5
3
330
0
100
AcDbSymbolTable
 70
     1
  0
STYLE
  5
11
330
3
100
AcDbSymbolTableRecord
100
AcDbTextStyleTableRecord
  2
STANDARD
 70
     0
 40
0.0
 41
1.0
 50
0.0
 71
     0
 42
0.2
  3
txt
  4

  0
ENDTAB
  0
TABLE
  2
VIEW
  5
6
330
0
100
AcDbSymbolTable
 70
     0
  0
ENDTAB
  0
TABLE
  2
UCS
  5
7
330
0
100
AcDbSymbolTable
 70
     0
  0
ENDTAB
  0
TABLE
  2
APPID
  5
9
330
0
100
AcDbSymbolTable
 70
     1
  0
APPID
  5
12
330
9
100
AcDbSymbolTableRecord
100
AcDbRegAppTableRecord
  2
ACAD
 70
     0
  0
ENDTAB
  0
TABLE
  2
DIMSTYLE
  5
A
330
0
100
AcDbSymbolTable
 70
     1
  0
DIMSTYLE
105
27
330
A
100
AcDbSymbolTableRecord
100
AcDbDimStyleTableRecord
  2
STANDARD
 70
     0
  3

  4

  5

  6

  7

 40
1.0
 41
0.18
 42
0.0625
 43
0.38
 44
0.18
 45
0.0
 46
0.0
 47
0.0
 48
0.0
140
0.18
141
0.09
142
0.0
143
25.4
144
1.0
145
0.0
146
1.0
147
0.09
 71
     0
 72
     0
 73
     1
 74
     1
 75
     0
 76
     0
 77
     0
 78
     0
170
     0
171
     2
172
     0
173
     0
174
     0
175
     0
176
     0
177
     0
178
     0
270
     2
271
     4
272
     4
273
     2
274
     2
340
11
275
     0
280
     0
281
     0
282
     0
283
     1
284
     0
285
     0
286
     0
287
     3
288
     0
  0
ENDTAB
  0
TABLE
  2
BLOCK_RECORD
  5
1
330
0
100
AcDbSymbolTable
 70
     1
  0
BLOCK_RECORD
  5
1F
330
1
100
AcDbSymbolTableRecord
100
AcDbBlockTableRecord
  2
*MODEL_SPACE
  0
BLOCK_RECORD
  5
1B
330
1
100
AcDbSymbolTableRecord
100
AcDbBlockTableRecord
  2
*PAPER_SPACE
  0
ENDTAB
  0
ENDSEC
  0
SECTION
  2
BLOCKS
  0
BLOCK
  5
20
330
1F
100
AcDbEntity
  8
0
100
AcDbBlockBegin
  2
*MODEL_SPACE
 70
     0
 10
0.0
 20
0.0
 30
0.0
  3
*MODEL_SPACE
  1

  0
ENDBLK
  5
21
330
1F
100
AcDbEntity
  8
0
100
AcDbBlockEnd
  0
BLOCK
  5
1C
330
1B
100
AcDbEntity
 67
     1
  8
0
100
AcDbBlockBegin
  2
*PAPER_SPACE
 70
     0
 10
0.0
 20
0.0
 30
0.0
  3
*PAPER_SPACE
  1

  0
ENDBLK
  5
1D
330
1B
100
AcDbEntity
 67
     1
  8
0
100
AcDbBlockEnd
  0
ENDSEC
  0
SECTION
  2
ENTITIES
  0
SPLINE
  5
41
330
1F
100
AcDbEntity
  8
LIVELLO_1
 62
   250
100
AcDbSpline
210
0.0
220
0.0
230
1.0
 70
    11
 71
     3
 72
   299
 73
   295
 74
     0
 42
0.0000000001
 43
0.0000000001
 12
1.0
 22
0.0
 32
0.0
 13
1.0
 23
0.0
 33
0.0
 40
0.0
 40
0.0
 40
0.0
 40
0.0
 40
1.0
 40
1.0
 40
1.0
 40
2.0
 40
2.0
 40
2.0
 40
3.0
 40
3.0
 40
3.0
 40
4.0
 40
4.0
 40
4.0
 40
5.0
 40
5.0
 40
5.0
 40
6.0
 40
6.0
 40
6.0
 40
7.0
 40
7.0
 40
7.0
 40
8.0
 40
8.0
 40
8.0
 40
9.0
 40
9.0
 40
9.0
 40
10.0
 40
10.0
 40
10.0
 40
11.0
 40
11.0
 40
11.0
 40
12.0
 40
12.0
 40
12.0
 40
13.0
 40
13.0
 40
13.0
 40
14.0
 40
14.0
 40
14.0
 40
15.0
 40
15.0
 40
15.0
 40
16.0
 40
16.0
 40
16.0
 40
17.0
 40
17.0
 40
17.0
 40
18.0
 40
18.0
 40
18.0
 40
19.0
 40
19.0
 40
19.0
 40
20.0
 40
20.0
 40
20.0
 40
21.0
 40
21.0
 40
21.0
 40
22.0
 40
22.0
 40
22.0
 40
23.0
 40
23.0
 40
23.0
 40
24.0
 40
24.0
 40
24.0
 40
25.0
 40
25.0
 40
25.0
 40
26.0
 40
26.0
 40
26.0
 40
27.0
 40
27.0
 40
27.0
 40
28.0
 40
28.0
 40
28.0
 40
29.0
 40
29.0
 40
29.0
 40
30.0
 40
30.0
 40
30.0
 40
31.0
 40
31.0
 40
31.0
 40
32.0
 40
32.0
 40
32.0
 40
33.0
 40
33.0
 40
33.0
 40
34.0
 40
34.0
 40
34.0
 40
35.0
 40
35.0
 40
35.0
 40
36.0
 40
36.0
 40
36.0
 40
37.0
 40
37.0
 40
37.0
 40
38.0
 40
38.0
 40
38.0
 40
39.0
 40
39.0
 40
39.0
 40
40.0
 40
40.0
 40
40.0
 40
41.0
 40
41.0
 40
41.0
 40
42.0
 40
42.0
 40
42.0
 40
43.0
 40
43.0
 40
43.0
 40
44.0
 40
44.0
 40
44.0
 40
45.0
 40
45.0
 40
45.0
 40
46.0
 40
46.0
 40
46.0
 40
47.0
 40
47.0
 40
47.0
 40
48.0
 40
48.0
 40
48.0
 40
49.0
 40
49.0
 40
49.0
 40
50.0
 40
50.0
 40
50.0
 40
51.0
 40
51.0
 40
51.0
 40
52.0
 40
52.0
 40
52.0
 40
53.0
 40
53.0
 40
53.0
 40
54.0
 40
54.0
 40
54.0
 40
55.0
 40
55.0
 40
55.0
 40
56.0
 40
56.0
 40
56.0
 40
57.0
 40
57.0
 40
57.0
 40
58.0
 40
58.0
 40
58.0
 40
59.0
 40
59.0
 40
59.0
 40
60.0
 40
60.0
 40
60.0
 40
61.0
 40
61.0
 40
61.0
 40
62.0
 40
62.0
 40
62.0
 40
63.0
 40
63.0
 40
63.0
 40
64.0
 40
64.0
 40
64.0
 40
65.0
 40
65.0
 40
65.0
 40
66.0
 40
66.0
 40
66.0
 40
67.0
 40
67.0
 40
67.0
 40
68.0
 40
68.0
 40
68.0
 40
69.0
 40
69.0
 40
69.0
 40
70.0
 40
70.0
 40
70.0
 40
71.0
 40
71.0
 40
71.0
 40
72.0
 40
72.0
 40
72.0
 40
73.0
 40
73.0
 40
73.0
 40
74.0
 40
74.0
 40
74.0
 40
75.0
 40
75.0
 40
75.0
 40
76.0
 40
76.0
 40
76.0
 40
77.0
 40
77.0
 40
77.0
 40
78.0
 40
78.0
 40
78.0
 40
79.0
 40
79.0
 40
79.0
 40
80.0
 40
80.0
 40
80.0
 40
81.0
 40
81.0
 40
81.0
 40
82.0
 40
82.0
 40
82.0
 40
83.0
 40
83.0
 40
83.0
 40
84.0
 40
84.0
 40
84.0
 40
85.0
 40
85.0
 40
85.0
 40
86.0
 40
86.0
 40
86.0
 40
87.0
 40
87.0
 40
87.0
 40
88.0
 40
88.0
 40
88.0
 40
89.0
 40
89.0
 40
89.0
 40
90.0
 40
90.0
 40
90.0
 40
91.0
 40
91.0
 40
91.0
 40
92.0
 40
92.0
 40
92.0
 40
93.0
 40
93.0
 40
93.0
 40
94.0
 40
94.0
 40
94.0
 40
95.0
 40
95.0
 40
95.0
 40
96.0
 40
96.0
 40
96.0
 40
97.0
 40
97.0
 40
97.0
 40
98.0
 40
98.0
 40
98.0
 40
98.0
 10
192.5183952697957
 20
-84.08140951809641
 30
0.0
 10
192.3881921923001
 20
-84.05477462362607
 30
0.0
 10
192.2626184618627
 20
-84.01547900324744
 30
0.0
 10
192.1429875211374
 20
-83.96487916330783
 30
0.0
 10
192.0233350485653
 20
-83.91427932336822
 30
0.0
 10
191.9096468975521
 20
-83.85235373202086
 30
0.0
 10
191.8032580425982
 20
-83.78048042745984
 30
0.0
 10
191.6968476557976
 20
-83.70858559105203
 30
0.0
 10
191.5977365650563
 20
-83.62674304143056
 30
0.0
 10
191.5072597448749
 20
-83.5362446894024
 30
0.0
 10
191.4167829246936
 20
-83.44576786922103
 30
0.0
 10
191.3349188432253
 20
-83.34665677847974
 30
0.0
 10
191.2630455386643
 20
-83.2402463916791
 30
0.0
 10
191.1911722341032
 20
-83.13385753672522
 30
0.0
 10
191.1292466427559
 20
-83.02016938571198
 30
0.0
 10
191.0786468028163
 20
-82.9005169131399
 30
0.0
 10
191.0280469628767
 20
-82.7808859724146
 30
0.0
 10
190.988751342498
 20
-82.65529071013046
 30
0.0
 10
190.9621164480277
 20
-82.52510916448158
 30
0.0
 10
190.9354600217106
 20
-82.39490608698591
 30
0.0
 10
190.9214858531485
 20
-82.26011672612552
 30
0.0
 10
190.9214858531485
 20
-82.12203299270735
 30
0.0
 10
190.9214858531485
 20
-82.12203299270735
 30
0.0
 10
189.0464711034545
 20
-82.12203299270735
 30
0.0
 10
189.0464711034545
 20
-82.12203299270735
 30
0.0
 10
189.0464711034545
 20
-82.12203299270735
 30
0.0
 10
187.1714778856073
 20
-82.12203299270735
 30
0.0
 10
187.1714778856073
 20
-82.12203299270735
 30
0.0
 10
187.1714778856073
 20
-82.12203299270735
 30
0.0
 10
185.2964846677601
 20
-82.12203299270735
 30
0.0
 10
185.2964846677601
 20
-82.12203299270735
 30
0.0
 10
185.2964846677601
 20
-82.12203299270735
 30
0.0
 10
183.4214699180661
 20
-82.12203299270735
 30
0.0
 10
183.4214699180661
 20
-82.12203299270735
 30
0.0
 10
183.4214699180661
 20
-82.12203299270735
 30
0.0
 10
181.5464767002188
 20
-82.12203299270735
 30
0.0
 10
181.5464767002188
 20
-82.12203299270735
 30
0.0
 10
181.5464767002188
 20
-82.12203299270735
 30
0.0
 10
179.6714619505248
 20
-82.12203299270735
 30
0.0
 10
179.6714619505248
 20
-82.12203299270735
 30
0.0
 10
179.6714619505248
 20
-82.12203299270735
 30
0.0
 10
177.7964687326776
 20
-82.12203299270735
 30
0.0
 10
177.7964687326776
 20
-82.12203299270735
 30
0.0
 10
177.7964687326776
 20
-82.12203299270735
 30
0.0
 10
175.9214755148304
 20
-82.12203299270735
 30
0.0
 10
175.9214755148304
 20
-82.12203299270735
 30
0.0
 10
175.9214755148304
 20
-82.12203299270735
 30
0.0
 10
175.5464768712609
 20
-82.12203299270735
 30
0.0
 10
175.5464768712609
 20
-82.12203299270735
 30
0.0
 10
175.5464768712609
 20
-82.12203299270735
 30
0.0
 10
175.1714782276915
 20
-82.12203299270735
 30
0.0
 10
175.1714782276915
 20
-82.12203299270735
 30
0.0
 10
175.1714782276915
 20
-82.12203299270735
 30
0.0
 10
175.1714566958447
 20
-82.12203299270735
 30
0.0
 10
175.1714566958447
 20
-82.12203299270735
 30
0.0
 10
175.1714566958447
 20
-82.12203299270735
 30
0.0
 10
174.7964580522753
 20
-82.12203299270735
 30
0.0
 10
174.7964580522753
 20
-82.12203299270735
 30
0.0
 10
174.7964580522753
 20
-82.12203299270735
 30
0.0
 10
174.4214594087058
 20
-82.12203299270735
 30
0.0
 10
174.4214594087058
 20
-82.12203299270735
 30
0.0
 10
174.4214594087058
 20
-82.12203299270735
 30
0.0
 10
174.0464607651364
 20
-82.12203299270735
 30
0.0
 10
174.0464607651364
 20
-82.12203299270735
 30
0.0
 10
174.0464607651364
 20
-82.12203299270735
 30
0.0
 10
173.6714621215669
 20
-82.12203299270735
 30
0.0
 10
173.6714621215669
 20
-82.12203299270735
 30
0.0
 10
173.6714621215669
 20
-82.12203299270735
 30
0.0
 10
173.2964634779975
 20
-82.12203299270735
 30
0.0
 10
173.2964634779975
 20
-82.12203299270735
 30
0.0
 10
173.2964634779975
 20
-82.12203299270735
 30
0.0
 10
172.9214648344281
 20
-82.12203299270735
 30
0.0
 10
172.9214648344281
 20
-82.12203299270735
 30
0.0
 10
172.9214648344281
 20
-82.12203299270735
 30
0.0
 10
171.0464500847341
 20
-82.12203299270735
 30
0.0
 10
171.0464500847341
 20
-82.12203299270735
 30
0.0
 10
171.0464500847341
 20
-82.12203299270735
 30
0.0
 10
169.1714568668868
 20
-82.12203299270735
 30
0.0
 10
169.1714568668868
 20
-82.12203299270735
 30
0.0
 10
169.1714568668868
 20
-82.12203299270735
 30
0.0
 10
167.2964636490396
 20
-82.12203299270735
 30
0.0
 10
167.2964636490396
 20
-82.12203299270735
 30
0.0
 10
167.2964636490396
 20
-82.12203299270735
 30
0.0
 10
165.4214488993456
 20
-82.12203299270735
 30
0.0
 10
165.4214488993456
 20
-82.12203299270735
 30
0.0
 10
165.4214488993456
 20
-82.12203299270735
 30
0.0
 10
163.5464556814984
 20
-82.12203299270735
 30
0.0
 10
163.5464556814984
 20
-82.12203299270735
 30
0.0
 10
163.5464556814984
 20
-82.12203299270735
 30
0.0
 10
161.6714624636512
 20
-82.12203299270735
 30
0.0
 10
161.6714624636512
 20
-82.12203299270735
 30
0.0
 10
161.6714624636512
 20
-82.12203299270735
 30
0.0
 10
159.7964477139571
 20
-82.12203299270735
 30
0.0
 10
159.7964477139571
 20
-82.12203299270735
 30
0.0
 10
159.7964477139571
 20
-82.12203299270735
 30
0.0
 10
157.9214544961099
 20
-82.12203299270735
 30
0.0
 10
157.9214544961099
 20
-82.12203299270735
 30
0.0
 10
157.9214544961099
 20
-82.26011672612552
 30
0.0
 10
157.9074587957011
 20
-82.39490608698591
 30
0.0
 10
157.8808239012308
 20
-82.52510916448158
 30
0.0
 10
157.8541674749136
 20
-82.65529071013046
 30
0.0
 10
157.8148933863818
 20
-82.7808859724146
 30
0.0
 10
157.7642720145954
 20
-82.9005169131399
 30
0.0
 10
157.7136721746558
 20
-83.02016938571198
 30
0.0
 10
157.6517681151552
 20
-83.13385753672522
 30
0.0
 10
157.5798732787474
 20
-83.2402463916791
 30
0.0
 10
157.5079999741864
 20
-83.34665677847974
 30
0.0
 10
157.4261574245649
 20
-83.44576786922103
 30
0.0
 10
157.3356590725367
 20
-83.5362446894024
 30
0.0
 10
157.2451822523554
 20
-83.62674304143056
 30
0.0
 10
157.1460711616141
 20
-83.70858559105203
 30
0.0
 10
157.0396823066602
 20
-83.78048042745984
 30
0.0
 10
156.9332719198596
 20
-83.85235373202086
 30
0.0
 10
156.8195837688463
 20
-83.91427932336822
 30
0.0
 10
156.699952828121
 20
-83.96487916330783
 30
0.0
 10
156.5803218873957
 20
-84.01547900324744
 30
0.0
 10
156.4547266251116
 20
-84.05477462362607
 30
0.0
 10
156.3245235476159
 20
-84.08140951809641
 30
0.0
 10
156.194342001967
 20
-84.10804441256674
 30
0.0
 10
156.0595311092599
 20
-84.12204011297557
 30
0.0
 10
155.9214689076885
 20
-84.12204011297557
 30
0.0
 10
155.9214689076885
 20
-84.12204011297557
 30
0.0
 10
155.9214689076885
 20
-85.74704858967435
 30
0.0
 10
155.9214689076885
 20
-85.74704858967435
 30
0.0
 10
155.9214689076885
 20
-85.74704858967435
 30
0.0
 10
155.9214689076885
 20
-87.37203553452635
 30
0.0
 10
155.9214689076885
 20
-87.37203553452635
 30
0.0
 10
155.9214689076885
 20
-87.37203553452635
 30
0.0
 10
155.9214689076885
 20
-88.99704401122514
 30
0.0
 10
155.9214689076885
 20
-88.99704401122514
 30
0.0
 10
155.9214689076885
 20
-88.99704401122514
 30
0.0
 10
155.9214689076885
 20
-90.62203095607714
 30
0.0
 10
155.9214689076885
 20
-90.62203095607714
 30
0.0
 10
155.9214689076885
 20
-90.62203095607714
 30
0.0
 10
155.9214689076885
 20
-92.24703943277592
 30
0.0
 10
155.9214689076885
 20
-92.24703943277592
 30
0.0
 10
155.9214689076885
 20
-92.24703943277592
 30
0.0
 10
155.9214689076885
 20
-93.87202637762792
 30
0.0
 10
155.9214689076885
 20
-93.87202637762792
 30
0.0
 10
155.9214689076885
 20
-93.87202637762792
 30
0.0
 10
155.9214689076885
 20
-95.4970348543267
 30
0.0
 10
155.9214689076885
 20
-95.4970348543267
 30
0.0
 10
155.9214689076885
 20
-95.4970348543267
 30
0.0
 10
155.9214689076885
 20
-97.1220217991787
 30
0.0
 10
155.9214689076885
 20
-97.1220217991787
 30
0.0
 10
156.0595311092599
 20
-97.1220217991787
 30
0.0
 10
156.194342001967
 20
-97.13601749958752
 30
0.0
 10
156.3245235476159
 20
-97.16265239405787
 30
0.0
 10
156.4547266251116
 20
-97.18930882037499
 30
0.0
 10
156.5803218873957
 20
-97.22860444075361
 30
0.0
 10
156.699952828121
 20
-97.27920428069322
 30
0.0
 10
156.8195837688463
 20
-97.32980412063283
 30
0.0
 10
156.9332719198596
 20
-97.39170818013342
 30
0.0
 10
157.0396823066602
 20
-97.46360301654123
 30
0.0
 10
157.1460711616141
 20
-97.53547632110225
 30
0.0
 10
157.2451822523554
 20
-97.61734040257049
 30
0.0
 10
157.3356590725367
 20
-97.70781722275187
 30
0.0
 10
157.4261574245649
 20
-97.79829404293325
 30
0.0
 10
157.5079999741864
 20
-97.89740513367452
 30
0.0
 10
157.5798732787474
 20
-98.00381552047519
 30
0.0
 10
157.6517681151552
 20
-98.11022590727583
 30
0.0
 10
157.7136721746558
 20
-98.22391405828908
 30
0.0
 10
157.7642720145954
 20
-98.34354499901438
 30
0.0
 10
157.8148933863818
 20
-98.46317593973968
 30
0.0
 10
157.8541674749136
 20
-98.58877120202382
 30
0.0
 10
157.8808239012308
 20
-98.71897427951949
 30
0.0
 10
157.9074587957011
 20
-98.84915582516835
 30
0.0
 10
157.9214544961099
 20
-98.98396671787555
 30
0.0
 10
157.9214544961099
 20
-99.12202891944693
 30
0.0
 10
157.9214544961099
 20
-99.12202891944693
 30
0.0
 10
159.7964477139571
 20
-99.12202891944693
 30
0.0
 10
159.7964477139571
 20
-99.12202891944693
 30
0.0
 10
159.7964477139571
 20
-99.12202891944693
 30
0.0
 10
161.6714624636512
 20
-99.12202891944693
 30
0.0
 10
161.6714624636512
 20
-99.12202891944693
 30
0.0
 10
161.6714624636512
 20
-99.12202891944693
 30
0.0
 10
163.5464556814984
 20
-99.12202891944693
 30
0.0
 10
163.5464556814984
 20
-99.12202891944693
 30
0.0
 10
163.5464556814984
 20
-99.12202891944693
 30
0.0
 10
165.4214488993456
 20
-99.12202891944693
 30
0.0
 10
165.4214488993456
 20
-99.12202891944693
 30
0.0
 10
165.4214488993456
 20
-99.12202891944693
 30
0.0
 10
167.2964636490396
 20
-99.12202891944693
 30
0.0
 10
167.2964636490396
 20
-99.12202891944693
 30
0.0
 10
167.2964636490396
 20
-99.12202891944693
 30
0.0
 10
169.1714568668868
 20
-99.12202891944693
 30
0.0
 10
169.1714568668868
 20
-99.12202891944693
 30
0.0
 10
169.1714568668868
 20
-99.12202891944693
 30
0.0
 10
171.0464500847341
 20
-99.12202891944693
 30
0.0
 10
171.0464500847341
 20
-99.12202891944693
 30
0.0
 10
171.0464500847341
 20
-99.12202891944693
 30
0.0
 10
172.9214648344281
 20
-99.12202891944693
 30
0.0
 10
172.9214648344281
 20
-99.12202891944693
 30
0.0
 10
172.9214648344281
 20
-99.12202891944693
 30
0.0
 10
173.2964634779975
 20
-99.12202891944693
 30
0.0
 10
173.2964634779975
 20
-99.12202891944693
 30
0.0
 10
173.2964634779975
 20
-99.12202891944693
 30
0.0
 10
173.6714621215669
 20
-99.12202891944693
 30
0.0
 10
173.6714621215669
 20
-99.12202891944693
 30
0.0
 10
173.6714621215669
 20
-99.12202891944693
 30
0.0
 10
174.0464607651364
 20
-99.12202891944693
 30
0.0
 10
174.0464607651364
 20
-99.12202891944693
 30
0.0
 10
174.0464607651364
 20
-99.12202891944693
 30
0.0
 10
174.4214594087058
 20
-99.12202891944693
 30
0.0
 10
174.4214594087058
 20
-99.12202891944693
 30
0.0
 10
174.4214594087058
 20
-99.12202891944693
 30
0.0
 10
174.7964580522753
 20
-99.12202891944693
 30
0.0
 10
174.7964580522753
 20
-99.12202891944693
 30
0.0
 10
174.7964580522753
 20
-99.12202891944693
 30
0.0
 10
175.1714566958447
 20
-99.12202891944693
 30
0.0
 10
175.1714566958447
 20
-99.12202891944693
 30
0.0
 10
175.1714566958447
 20
-99.12202891944693
 30
0.0
 10
175.1714782276915
 20
-99.12202891944693
 30
0.0
 10
175.1714782276915
 20
-99.12202891944693
 30
0.0
 10
175.1714782276915
 20
-99.12202891944693
 30
0.0
 10
175.5464768712609
 20
-99.12202891944693
 30
0.0
 10
175.5464768712609
 20
-99.12202891944693
 30
0.0
 10
175.5464768712609
 20
-99.12202891944693
 30
0.0
 10
175.9214755148304
 20
-99.12202891944693
 30
0.0
 10
175.9214755148304
 20
-99.12202891944693
 30
0.0
 10
175.9214755148304
 20
-99.12202891944693
 30
0.0
 10
177.7964687326776
 20
-99.12202891944693
 30
0.0
 10
177.7964687326776
 20
-99.12202891944693
 30
0.0
 10
177.7964687326776
 20
-99.12202891944693
 30
0.0
 10
179.6714619505248
 20
-99.12202891944693
 30
0.0
 10
179.6714619505248
 20
-99.12202891944693
 30
0.0
 10
179.6714619505248
 20
-99.12202891944693
 30
0.0
 10
181.5464767002188
 20
-99.12202891944693
 30
0.0
 10
181.5464767002188
 20
-99.12202891944693
 30
0.0
 10
181.5464767002188
 20
-99.12202891944693
 30
0.0
 10
183.4214699180661
 20
-99.12202891944693
 30
0.0
 10
183.4214699180661
 20
-99.12202891944693
 30
0.0
 10
183.4214699180661
 20
-99.12202891944693
 30
0.0
 10
185.2964846677601
 20
-99.12202891944693
 30
0.0
 10
185.2964846677601
 20
-99.12202891944693
 30
0.0
 10
185.2964846677601
 20
-99.12202891944693
 30
0.0
 10
187.1714778856073
 20
-99.12202891944693
 30
0.0
 10
187.1714778856073
 20
-99.12202891944693
 30
0.0
 10
187.1714778856073
 20
-99.12202891944693
 30
0.0
 10
189.0464711034545
 20
-99.12202891944693
 30
0.0
 10
189.0464711034545
 20
-99.12202891944693
 30
0.0
 10
189.0464711034545
 20
-99.12202891944693
 30
0.0
 10
190.9214858531485
 20
-99.12202891944693
 30
0.0
 10
190.9214858531485
 20
-99.12202891944693
 30
0.0
 10
190.9214858531485
 20
-98.98396671787555
 30
0.0
 10
190.9354600217106
 20
-98.84915582516835
 30
0.0
 10
190.9621164480277
 20
-98.71897427951949
 30
0.0
 10
190.988751342498
 20
-98.58877120202382
 30
0.0
 10
191.0280469628767
 20
-98.46317593973968
 30
0.0
 10
191.0786468028163
 20
-98.34354499901438
 30
0.0
 10
191.1292466427559
 20
-98.22391405828908
 30
0.0
 10
191.1911722341032
 20
-98.11022590727583
 30
0.0
 10
191.2630455386643
 20
-98.00381552047519
 30
0.0
 10
191.3349188432253
 20
-97.89740513367452
 30
0.0
 10
191.4167829246936
 20
-97.79829404293325
 30
0.0
 10
191.5072597448749
 20
-97.70781722275187
 30
0.0
 10
191.5977365650563
 20
-97.61734040257049
 30
0.0
 10
191.6968476557976
 20
-97.53547632110225
 30
0.0
 10
191.8032580425982
 20
-97.46360301654123
 30
0.0
 10
191.9096468975521
 20
-97.39170818013342
 30
0.0
 10
192.0233350485653
 20
-97.32980412063283
 30
0.0
 10
192.1429875211374
 20
-97.27920428069322
 30
0.0
 10
192.2626184618627
 20
-97.22860444075361
 30
0.0
 10
192.3881921923001
 20
-97.18930882037499
 30
0.0
 10
192.5183952697957
 20
-97.16265239405787
 30
0.0
 10
192.6485983472914
 20
-97.13601749958752
 30
0.0
 10
192.7833877081518
 20
-97.1220217991787
 30
0.0
 10
192.92147144157
 20
-97.1220217991787
 30
0.0
 10
192.92147144157
 20
-97.1220217991787
 30
0.0
 10
192.92147144157
 20
-95.4970348543267
 30
0.0
 10
192.92147144157
 20
-95.4970348543267
 30
0.0
 10
192.92147144157
 20
-95.4970348543267
 30
0.0
 10
192.92147144157
 20
-93.87202637762792
 30
0.0
 10
192.92147144157
 20
-93.87202637762792
 30
0.0
 10
192.92147144157
 20
-93.87202637762792
 30
0.0
 10
192.92147144157
 20
-92.24703943277592
 30
0.0
 10
192.92147144157
 20
-92.24703943277592
 30
0.0
 10
192.92147144157
 20
-92.24703943277592
 30
0.0
 10
192.92147144157
 20
-90.62203095607714
 30
0.0
 10
192.92147144157
 20
-90.62203095607714
 30
0.0
 10
192.92147144157
 20
-90.62203095607714
 30
0.0
 10
192.92147144157
 20
-88.99704401122514
 30
0.0
 10
192.92147144157
 20
-88.99704401122514
 30
0.0
 10
192.92147144157
 20
-88.99704401122514
 30
0.0
 10
192.92147144157
 20
-87.37203553452635
 30
0.0
 10
192.92147144157
 20
-87.37203553452635
 30
0.0
 10
192.92147144157
 20
-87.37203553452635
 30
0.0
 10
192.92147144157
 20
-85.74704858967435
 30
0.0
 10
192.92147144157
 20
-85.74704858967435
 30
0.0
 10
192.92147144157
 20
-85.74704858967435
 30
0.0
 10
192.92147144157
 20
-84.12204011297557
 30
0.0
 10
192.92147144157
 20
-84.12204011297557
 30
0.0
 10
192.7833877081518
 20
-84.12204011297557
 30
0.0
 10
192.6485983472914
 20
-84.10804441256674
 30
0.0
 10
192.5183952697957
 20
-84.08140951809641
 30
0.0
  0
ENDSEC
  0
SECTION
  2
OBJECTS
  0
DICTIONARY
  5
C
330
0
100
AcDbDictionary
  3
ACAD_GROUP
350
D
  3
ACAD_LAYOUT
350
1A
  3
ACAD_MATERIAL
350
3B
  3
ACAD_MLEADERSTYLE
350
44
  3
ACAD_MLINESTYLE
350
17
  3
ACAD_PLOTSETTINGS
350
19
  3
ACAD_VISUALSTYLE
350
2A
  3
ACDBVARIABLEDICTIONARY
350
42
1001
ACAD
1000
TREAT_AS_HARD
1070
     0
  0
DICTIONARY
  5
D
102
{ACAD_REACTORS
330
C
102
}
330
C
100
AcDbDictionary
1001
ACAD
1000
TREAT_AS_HARD
1070
     0
  0
DICTIONARY
  5
1A
102
{ACAD_REACTORS
330
C
102
}
330
C
100
AcDbDictionary
1001
ACAD
1000
TREAT_AS_HARD
1070
     0
  0
DICTIONARY
  5
3B
102
{ACAD_REACTORS
330
C
102
}
330
C
100
AcDbDictionary
  3
BYBLOCK
350
3D
  3
BYLAYER
350
3C
  3
GLOBAL
350
3E
1001
ACAD
1000
TREAT_AS_HARD
1070
     0
  0
DICTIONARY
  5
44
102
{ACAD_REACTORS
330
C
102
}
330
C
100
AcDbDictionary
1001
ACAD
1000
TREAT_AS_HARD
1070
     0
  0
DICTIONARY
  5
17
102
{ACAD_REACTORS
330
C
102
}
330
C
100
AcDbDictionary
  3
STANDARD
350
18
1001
ACAD
1000
TREAT_AS_HARD
1070
     0
  0
DICTIONARY
  5
19
102
{ACAD_REACTORS
330
C
102
}
330
C
100
AcDbDictionary
1001
ACAD
1000
TREAT_AS_HARD
1070
     0
  0
DICTIONARY
  5
2A
102
{ACAD_REACTORS
330
C
102
}
330
C
100
AcDbDictionary
  3
2DWIREFRAME
350
2F
  3
3DWIREFRAME
350
30
  3
3D_HIDDEN
350
31
  3
BASIC
350
32
  3
BRIGHTEN
350
36
  3
COLORCHANGE
350
3A
  3
CONCEPTUAL
350
34
  3
DIM
350
35
  3
FACEPATTERN
350
39
  3
FLAT
350
2B
  3
FLATWITHEDGES
350
2C
  3
GOURAUD
350
2D
  3
GOURAUDWITHEDGES
350
2E
  3
LINEPATTERN
350
38
  3
REALISTIC
350
33
  3
THICKEN
350
37
1001
ACAD
1000
TREAT_AS_HARD
1070
     0
  0
DICTIONARY
  5
42
102
{ACAD_REACTORS
330
C
102
}
330
C
100
AcDbDictionary
  3
DIMASSOC
350
45
  3
HIDETEXT
350
46
1001
ACAD
1000
TREAT_AS_HARD
1070
     0
  0
MATERIAL
  5
3D
102
{ACAD_REACTORS
330
3B
102
}
102
{ACAD_XDICTIONARY
360
49
102
}
330
3B
100
AcDbMaterial
  1
ByBlock
  0
MATERIAL
  5
3C
102
{ACAD_REACTORS
330
3B
102
}
102
{ACAD_XDICTIONARY
360
47
102
}
330
3B
100
AcDbMaterial
  1
ByLayer
  0
MATERIAL
  5
3E
102
{ACAD_REACTORS
330
3B
102
}
102
{ACAD_XDICTIONARY
360
4B
102
}
330
3B
100
AcDbMaterial
  1
Global
  0
MLINESTYLE
  5
18
102
{ACAD_REACTORS
330
17
102
}
330
17
100
AcDbMlineStyle
  2
Standard
 70
     0
  3

 62
   256
 51
90.0
 52
90.0
 71
     2
 49
0.5
 62
   256
  6
BYLAYER
 49
-0.5
 62
   256
  6
BYLAYER
  0
ACAD_PROXY_OBJECT
  5
2F
102
{ACAD_REACTORS
330
2A
102
}
330
2A
100
AcDbZombieObject
 90
      499
 91
      501
 93
      436
310
42CC9915DA5C99599C985B595049028333333333333E3BF0000000000000FB0107901411070040501600405405064090741402480A0340
1001
ACAD
1000
AcDbSavedByObjectVersion
1070
     0
  0
ACAD_PROXY_OBJECT
  5
30
102
{ACAD_REACTORS
330
2A
102
}
330
2A
100
AcDbZombieObject
 90
      499
 91
      501
 93
      436
310
42CCD915DA5C99599C985B595059028333333333333E3BF0000000000000FB0107901411070040501600405405064090741402480A0340
1001
ACAD
1000
AcDbSavedByObjectVersion
1070
     0
  0
ACAD_PROXY_OBJECT
  5
31
102
{ACAD_REACTORS
330
2A
102
}
330
2A
100
AcDbZombieObject
 90
      499
 91
      501
 93
      500
310
424CD108121A5919195B90640502408333333333333E3BF0000000000000FB01079024090700405020000000000001110200405405064090740C02480A0340
1001
ACAD
1000
AcDbSavedByObjectVersion
1070
     0
  0
ACAD_PROXY_OBJECT
  5
32
102
{ACAD_REACTORS
330
2A
102
}
330
2A
100
AcDbZombieObject
 90
      499
 91
      501
 93
      388
310
4150985CDA58D07406404333333333333E3BF0000000000000FB0107A41107004050150841D405064090741402480A0350
1001
ACAD
1000
AcDbSavedByObjectVersion
1070
     0
  0
ACAD_PROXY_OBJECT
  5
36
102
{ACAD_REACTORS
330
2A
102
}
330
2A
100
AcDbZombieObject
 90
      499
 91
      501
 93
      428
310
42109C9A59DA1D195B90C409028333333333333E3BF0000000000000FB010790141107004050150841D405064090741402480A029950
1001
ACAD
1000
AcDbSavedByObjectVersion
1070
     0
  0
ACAD_PROXY_OBJECT
  5
3A
102
{ACAD_REACTORS
330
2A
102
}
330
2A
100
AcDbZombieObject
 90
      499
 91
      501
 93
      452
310
42D0DBDB1BDC90DA185B99D95104090240C333333333333E3BF0000000000000FB0108901411070040501508421405064090741402480A0350
1001
ACAD
1000
AcDbSavedByObjectVersion
1070
     0
  0
ACAD_PROXY_OBJECT
  5
34
102
{ACAD_REACTORS
330
2A
102
}
330
2A
100
AcDbZombieObject
 90
      499
 91
      501
 93
      500
310
4290DBDB98D95C1D1D585B10940D028333333333333E3BF0000000000000FB0107902409070040501000000000000111010841D405064090740C02480A0340
1001
ACAD
1000
AcDbSavedByObjectVersion
1070
     0
  0
ACAD_PROXY_OBJECT
  5
35
102
{ACAD_REACTORS
330
2A
102
}
330
2A
100
AcDbZombieObject
 90
      499
 91
      501
 93
      412
310
40D11A5B50B409028333333333333E3BF0000000000000FB010790141107004050150841D405064090741402480A02677FFFFFD0
1001
ACAD
1000
AcDbSavedByObjectVersion
1070
     0
  0
ACAD_PROXY_OBJECT
  5
39
102
{ACAD_REACTORS
330
2A
102
}
330
2A
100
AcDbZombieObject
 90
      499
 91
      501
 93
      444
310
42D19858D95C185D1D195C9B90F409028333333333333E3BF0000000000000FB010790141107004050150841D405064090741402480A0350
1001
ACAD
1000
AcDbSavedByObjectVersion
1070
     0
  0
ACAD_PROXY_OBJECT
  5
2B
102
{ACAD_REACTORS
330
2A
102
}
330
2A
100
AcDbZombieObject
 90
      499
 91
      501
 93
      388
310
41119B185D240901404333333333333E3BF0000000000000F9010740A41107004050150841D405064090741402480A1B50
1001
ACAD
1000
AcDbSavedByObjectVersion
1070
     0
  0
ACAD_PROXY_OBJECT
  5
2C
102
{ACAD_REACTORS
330
2A
102
}
330
2A
100
AcDbZombieObject
 90
      499
 91
      501
 93
      476
310
43519B185D15DA5D1A115919D95CD0140901404333333333333E3BF0000000000000F9010740901411070040501600405405064090741402480A1B50
1001
ACAD
1000
AcDbSavedByObjectVersion
1070
     0
  0
ACAD_PROXY_OBJECT
  5
2D
102
{ACAD_REACTORS
330
2A
102
}
330
2A
100
AcDbZombieObject
 90
      499
 91
      501
 93
      412
310
41D1DBDD5C985D5910240902404333333333333E3BF0000000000000F9010740A411070040501641D405064090741402480A1B50
1001
ACAD
1000
AcDbSavedByObjectVersion
1070
     0
  0
ACAD_PROXY_OBJECT
  5
2E
102
{ACAD_REACTORS
330
2A
102
}
330
2A
100
AcDbZombieObject
 90
      499
 91
      501
 93
      500
310
4411DBDD5C985D5915DA5D1A115919D95CD0340902404333333333333E3BF0000000000000F9010740901411070040501600405405064090741402480A1B50
1001
ACAD
1000
AcDbSavedByObjectVersion
1070
     0
  0
ACAD_PROXY_OBJECT
  5
38
102
{ACAD_REACTORS
330
2A
102
}
330
2A
100
AcDbZombieObject
 90
      499
 91
      501
 93
      444
310
42D31A5B995C185D1D195C9B90E409028333333333333E3BF0000000000000FB010790141107004050750841D405064090741402483A0350
1001
ACAD
1000
AcDbSavedByObjectVersion
1070
     0
  0
ACAD_PROXY_OBJECT
  5
33
102
{ACAD_REACTORS
330
2A
102
}
330
2A
100
AcDbZombieObject
 90
      499
 91
      501
 93
      420
310
425499585B1A5CDD1A58D08409028333333333333E3BF0000000000000FB01079019070040501508421405064090741402480A1B40
1001
ACAD
1000
AcDbSavedByObjectVersion
1070
     0
  0
ACAD_PROXY_OBJECT
  5
37
102
{ACAD_REACTORS
330
2A
102
}
330
2A
100
AcDbZombieObject
 90
      499
 91
      501
 93
      412
310
41D51A1A58DAD95B90D409028333333333333E3BF0000000000000FB010790141107004050150C41D405064090741402480A0350
1001
ACAD
1000
AcDbSavedByObjectVersion
1070
     0
  0
DICTIONARYVAR
  5
45
102
{ACAD_REACTORS
330
42
102
}
330
42
100
DictionaryVariables
280
     0
  1
2
  0
DICTIONARYVAR
  5
46
102
{ACAD_REACTORS
330
42
102
}
330
42
100
DictionaryVariables
280
     0
  1
1
  0
DICTIONARY
  5
49
330
3D
100
AcDbDictionary
  3
ACAD_XREC_ROUNDTRIP
360
4A
1001
ACAD
1000
TREAT_AS_HARD
1070
     1
  0
DICTIONARY
  5
47
330
3C
100
AcDbDictionary
  3
ACAD_XREC_ROUNDTRIP
360
48
1001
ACAD
1000
TREAT_AS_HARD
1070
     1
  0
DICTIONARY
  5
4B
330
3E
100
AcDbDictionary
  3
ACAD_XREC_ROUNDTRIP
360
4C
1001
ACAD
1000
TREAT_AS_HARD
1070
     1
  0
XRECORD
  5
4A
102
{ACAD_REACTORS
330
49
102
}
330
49
100
AcDbXrecord
102
MATERIAL
148
0.0
149
0.0
149
0.0
 93
        0
 94
      127
282
     0
 72
     1
 77
     1
171
     1
175
     1
179
     1
273
     0
  0
XRECORD
  5
48
102
{ACAD_REACTORS
330
47
102
}
330
47
100
AcDbXrecord
102
MATERIAL
148
0.0
149
0.0
149
0.0
 93
        0
 94
      127
282
     0
 72
     1
 77
     1
171
     1
175
     1
179
     1
273
     0
  0
XRECORD
  5
4C
102
{ACAD_REACTORS
330
4B
102
}
330
4B
100
AcDbXrecord
102
MATERIAL
148
0.0
149
0.0
149
0.0
 93
        0
 94
      127
282
     0
 72
     1
 77
     1
171
     1
175
     1
179
     1
273
     0
  0
ENDSEC
  0
EOF
